PathFileType	4	(X/Y/Z)	A:\Common\BMMB\PROJECTS\STRATO\DataSTRATO\DataSTRATO\0021~016 ID\0021~aa~ID 016\Standing_STRATO_ID_16.trc
DataRate	CameraRate	NumFrames	NumMarkers	Units	OrigDataRate	OrigDataStartFrame	OrigNumFrames
250.00	250.00	15	22	mm	250.00	1931	3281
Frame#	Time	r.should			l.should			c7			r.asis			l.asis			sacrum			r.bar1			l.bar1			r.knee1			l.knee1			r.bar2			r.mall			l.bar2			l.mall			r.met			r.heel			l.heel			l.met			r.mallm			l.mallm			r.kneem			l.kneem			
		X1	Y1	Z1	X2	Y2	Z2	X3	Y3	Z3	X4	Y4	Z4	X5	Y5	Z5	X6	Y6	Z6	X7	Y7	Z7	X8	Y8	Z8	X9	Y9	Z9	X10	Y10	Z10	X11	Y11	Z11	X12	Y12	Z12	X13	Y13	Z13	X14	Y14	Z14	X15	Y15	Z15	X16	Y16	Z16	X17	Y17	Z17	X18	Y18	Z18	X19	Y19	Z19	X20	Y20	Z20	X21	Y21	Z21	X22	Y22	Z22	

1930	7.720000	339.382738	1331.488371	308.183134	41.601915	1348.956585	304.640919	200.370193	1388.874054	392.052174	297.289252	891.533971	156.819284	57.274908	880.182087	178.267866	193.910569	951.925457	390.042841	392.576694	816.089630	242.908433	-10.453532	792.287171	274.471402	351.954460	465.523243	282.949954	13.944634	467.907369	358.146995	338.155568	414.239407	278.020591	328.497320	70.371978	304.980904	11.090962	423.868448	367.460817	48.986275	53.032473	337.759346	295.342565	36.831591	163.580194	286.508739	37.036166	362.826079	95.994368	31.850930	401.486844	75.482769	36.077160	196.310475	243.801430	78.723893	299.370438	129.514903	79.501718	330.077916	208.367005	440.673351	325.137734	161.151156	445.238888	365.466893	
1931	7.724000	339.379877	1331.498861	308.234602	41.597769	1348.955512	304.661036	200.367406	1388.879538	392.082214	297.314435	891.557515	156.831443	57.296794	880.190730	178.325981	193.914071	951.933682	390.076309	392.602056	816.092730	242.939949	-10.457850	792.297661	274.470776	351.958543	465.539783	282.962918	13.956239	467.915326	358.139813	338.157475	414.252222	278.037220	328.511775	70.391312	304.967791	11.095006	423.874706	367.454112	49.132191	54.110155	335.968494	295.355350	36.843002	163.582981	286.521316	37.046857	362.802923	96.005164	31.876478	401.482612	75.485786	36.069889	196.306199	243.812010	78.733951	299.351573	129.517466	79.524443	330.072224	208.371356	440.670222	325.165629	161.161050	445.240796	365.462899	
1932	7.728000	339.380413	1331.524968	308.264554	41.595869	1348.965168	304.687351	200.359613	1388.882518	392.140090	297.323436	891.604900	156.836152	57.318728	880.202413	178.369939	193.930969	951.931417	390.106976	392.617166	816.115499	242.966726	-10.437437	792.297542	274.475455	351.960570	465.543658	282.977074	13.940733	467.941374	358.127326	338.160127	414.269358	278.044701	328.513265	70.399992	304.960907	11.061891	423.855543	367.475152	49.161784	54.399729	335.498810	295.348048	36.823444	163.556993	286.524624	37.039090	362.766147	95.997557	31.880308	401.492119	75.489202	36.064398	196.304142	243.809149	78.718849	299.370468	129.514664	79.540074	330.069751	208.365992	440.664828	325.185776	161.160737	445.247084	365.469933	
1933	7.732000	339.375198	1331.551433	308.297455	41.590218	1348.988652	304.711968	200.337633	1388.886929	392.196059	297.321528	891.635180	156.853914	57.334106	880.232453	178.404942	193.929970	951.940417	390.141934	392.621458	816.125154	242.983222	-10.422606	792.299390	274.498165	351.955652	465.541959	283.009082	13.928848	467.934012	358.154655	338.158041	414.284021	278.041005	328.506202	70.400536	304.969728	11.025190	423.813760	367.492050	49.185976	54.482218	335.351288	295.330822	36.828648	163.552538	286.526352	37.038680	362.785637	95.998175	31.884484	401.499867	75.493013	36.060907	196.304515	243.811756	78.703806	299.368352	129.496664	79.526782	330.082119	208.362848	440.670758	325.167000	161.162198	445.244610	365.478575	
1934	7.736000	339.363188	1331.572294	308.348089	41.584168	1348.996282	304.748178	200.330988	1388.890624	392.256439	297.335297	891.654491	156.892926	57.346880	880.237818	178.452060	193.920389	951.943755	390.181035	392.618716	816.133738	243.010551	-10.417899	792.308033	274.498999	351.952225	465.545356	283.037066	13.943534	467.936039	358.135521	338.156730	414.287448	278.067976	328.500956	70.401788	304.975748	11.080893	423.861206	367.458314	49.188599	54.449789	335.366428	295.340508	36.825344	163.556859	286.511838	37.049130	362.799466	95.999554	31.890426	401.491284	75.497217	36.059629	196.307480	243.810907	78.708261	299.367219	129.490286	79.518117	330.104291	208.362266	440.669179	325.161099	161.164731	445.234537	365.495205	
1935	7.740000	339.360893	1331.585407	308.425546	41.577976	1349.006534	304.794550	200.322226	1388.891459	392.286122	297.370225	891.655087	156.959057	57.354387	880.251050	178.457484	193.910509	951.946139	390.211433	392.624110	816.141665	243.058130	-10.407693	792.319059	274.549782	351.961017	465.545952	283.051938	13.934580	467.939734	358.141601	338.173568	414.280832	278.091848	328.504205	70.406377	304.968923	11.063330	423.871785	367.468685	49.115568	53.996149	336.157054	295.338035	36.797579	163.557813	286.497384	37.055578	362.800181	95.988140	31.894196	401.476622	75.501809	36.060788	196.313232	243.816733	78.709438	299.366474	129.513040	79.535231	330.105424	208.353654	440.673023	325.187206	161.160976	445.233613	365.482748	
1936	7.744000	339.349717	1331.595063	308.491647	41.555069	1349.025488	304.850399	200.297609	1388.892531	392.353654	297.369003	891.649842	157.053262	57.364084	880.287409	178.431451	193.891048	951.950550	390.233457	392.635822	816.136420	243.077561	-10.412203	792.315364	274.593920	351.963133	465.546459	283.070564	13.917980	467.954725	358.173072	338.160694	414.282799	278.103083	328.482926	70.402727	304.993540	11.059601	423.867583	367.474735	48.966080	52.914277	337.916911	295.337349	36.795817	163.578659	286.480188	37.057124	362.793595	95.979095	31.905495	401.502609	75.506787	36.064595	196.321979	243.810594	78.727007	299.365908	129.537001	79.538338	330.118477	208.348081	440.666914	325.217813	161.143214	445.243478	365.470916	
1937	7.748000	339.337468	1331.599712	308.539331	41.552674	1349.026084	304.915577	200.285271	1388.878107	392.423123	297.383100	891.666591	157.101914	57.357002	880.302727	178.474218	193.879157	951.949298	390.271306	392.650902	816.142261	243.099108	-10.430464	792.319834	274.622321	351.957560	465.542257	283.114821	13.940436	467.952609	358.157128	338.153124	414.276004	278.131545	328.478038	70.397988	304.997444	11.053672	423.873156	367.501736	48.924427	52.649550	338.346839	295.317590	36.799952	163.583130	286.469638	37.054211	362.807900	95.985599	31.902015	401.505321	75.512149	36.071267	196.333870	243.802518	78.736767	299.369186	129.534274	79.516210	330.128431	208.350599	440.665781	325.227082	161.134005	445.249766	365.476012	
1938	7.752000	339.330912	1331.610322	308.586597	41.546151	1349.022746	304.948986	200.278372	1388.868332	392.495215	297.402322	891.676128	157.112375	57.364620	880.328298	178.499147	193.882868	951.950908	390.310913	392.657280	816.142082	243.149146	-10.445150	792.308390	274.621695	351.959109	465.537220	283.134729	13.949335	467.948556	358.166635	338.149399	414.268523	278.158635	328.489900	70.404872	304.984570	11.046064	423.868924	367.494226	48.953611	53.096704	337.649673	295.316011	36.822513	163.585216	286.467940	37.053797	362.804770	95.979430	31.879395	401.514500	75.517890	36.081020	196.349144	243.792802	78.725569	299.360693	129.526973	79.523824	330.139071	208.350196	440.647066	325.245619	161.130592	445.224464	365.504324	
1939	7.756000	339.323997	1331.606627	308.608621	41.538443	1349.027991	304.982871	200.277478	1388.881922	392.541409	297.421098	891.691089	157.118559	57.373278	880.361199	178.505287	193.898812	951.947868	390.357882	392.662823	816.144466	243.182063	-10.426491	792.321563	274.635494	351.969898	465.536833	283.157110	13.937066	467.939615	358.157545	338.144004	414.265454	278.169394	328.492075	70.402935	304.971308	11.037657	423.864126	367.505491	49.120039	54.189611	335.835606	295.308739	36.824860	163.592190	286.467582	37.041072	362.755120	95.983893	31.879246	401.513577	75.524008	36.094077	196.367949	243.793100	78.723416	299.366832	129.517615	79.503216	330.137670	208.348870	440.639377	325.258970	161.135152	445.213199	365.519106	
1940	7.760000	339.328527	1331.599832	308.644950	41.527726	1349.026918	305.031598	200.254038	1388.878345	392.578244	297.420979	891.696990	157.138497	57.385944	880.369604	178.556159	193.908870	951.942503	390.405357	392.668903	816.130280	243.194997	-10.407735	792.341411	274.649352	351.969123	465.530455	283.174127	13.935872	467.927516	358.145595	338.153541	414.269447	278.164864	328.469753	70.383668	304.980427	11.048262	423.874885	367.488742	49.198672	54.424897	335.443318	295.325369	36.815479	163.588792	286.469668	37.057430	362.776875	95.977448	31.877901	401.494056	75.530500	36.110647	196.390480	243.798345	78.709945	299.389064	129.512012	79.475485	330.098152	208.349824	440.643311	325.256735	161.126733	445.204735	365.516007	
1941	7.764000	339.323103	1331.618071	308.684379	41.514449	1349.030018	305.067956	200.253129	1388.873816	392.642915	297.431588	891.712487	157.194585	57.399716	880.368352	178.623021	193.917394	951.949716	390.463889	392.666817	816.133142	243.225083	-10.401086	792.351186	274.683803	351.966739	465.520501	283.181220	13.945655	467.930436	358.169973	338.148445	414.261550	278.184325	328.476965	70.378996	304.965496	11.074634	423.880488	367.461830	49.185768	54.474868	335.402012	295.331657	36.797930	163.568750	286.479354	37.046727	362.795770	95.963478	31.866841	401.463062	75.537363	36.130950	196.416944	243.794769	78.707650	299.391896	129.508108	79.488970	330.070972	208.361268	440.646768	325.286239	161.135927	445.207208	365.519285	
1942	7.768000	339.309007	1331.648469	308.706135	41.523449	1349.029779	305.089802	200.249970	1388.875127	392.698765	297.435045	891.717911	157.265663	57.411734	880.375981	178.682297	193.924218	951.931715	390.482485	392.697364	816.142321	243.237689	-10.404847	792.344272	274.699360	351.959586	465.512812	283.201367	13.948511	467.931896	358.181834	338.153392	414.248794	278.200448	328.484952	70.366040	304.968119	11.086000	423.893422	367.468178	49.186256	54.507650	335.335672	295.322716	36.813647	163.536802	286.487460	37.021637	362.765193	95.950678	31.860709	401.443064	75.544593	36.155201	196.447521	243.811473	78.697823	299.382269	129.498601	79.496264	330.065995	208.371401	440.640479	325.298131	161.145806	445.217192	365.530491	
1943	7.772000	339.296997	1331.650376	308.722079	41.509546	1349.028349	305.116206	200.235873	1388.865471	392.753094	297.443002	891.724706	157.299444	57.418443	880.376399	178.772062	193.918556	951.924324	390.513808	392.725021	816.156507	243.259758	-10.397069	792.342901	274.719834	351.962566	465.518832	283.218801	13.953230	467.938870	358.180732	338.163495	414.246380	278.212428	328.476667	70.366301	304.968596	11.082474	423.866272	367.481589	49.200661	54.508086	335.316807	295.336127	36.834273	163.552105	286.489904	37.017588	362.753183	95.955282	31.845711	401.431292	75.552188	36.183622	196.482390	243.817076	78.696020	299.366325	129.499808	79.512313	330.069512	208.369553	440.636784	325.302035	161.144063	445.216179	365.547657	
1944	7.776000	339.302957	1331.658959	308.786750	41.514609	1349.024534	305.141926	200.231522	1388.865471	392.795026	297.475934	891.744971	157.309413	57.437379	880.372405	178.836852	193.918765	951.923966	390.560508	392.735451	816.157401	243.310899	-10.373205	792.344868	274.742842	351.959586	465.515286	283.226430	13.958048	467.938185	358.184308	338.168859	414.255261	278.241456	328.471720	70.369869	304.966867	11.090904	423.846960	367.478281	49.195096	54.500040	335.349768	295.338929	36.826108	163.562059	286.492705	37.025359	362.745970	95.965415	31.868756	401.473999	75.560145	36.216423	196.521759	243.807673	78.699045	299.372017	129.517093	79.511330	330.098152	208.377093	440.623969	325.329900	161.143586	445.204437	365.556777	
